<svg xmlns="http://www.w3.org/2000/svg" xmlns:xlink="http://www.w3.org/1999/xlink" width="754" zoomAndPan="magnify" viewBox="0 0 565.92 287.999989" height="384" preserveAspectRatio="xMidYMid meet" version="1.0"><defs><clipPath id="3b1015cdef"><path d="M 84 108 L 208 108 L 208 218 L 84 218 Z M 84 108 " clip-rule="nonzero"/></clipPath><clipPath id="b0813961b4"><path d="M 127.832031 140.503906 C 128.992188 143.023438 130.921875 147.851562 132.863281 154.820312 C 134.800781 161.789062 136.152344 171.839844 136.53125 177.839844 C 136.722656 179.578125 136.722656 180.929688 136.722656 182.289062 C 136.722656 185.765625 136.332031 188.285156 135.953125 189.835938 C 143.101562 189.257812 149.300781 188.097656 154.910156 185.96875 C 159.550781 184.226562 164.578125 181.707031 168.058594 178.230469 C 171.539062 174.75 173.855469 170.300781 173.855469 164.300781 C 173.855469 155.210938 166.707031 148.632812 157.230469 144.375 C 147.75 140.113281 136.140625 138.183594 126.863281 138.183594 C 126.863281 138.375 127.253906 139.152344 127.832031 140.503906 M 104.035156 108.007812 C 119.316406 108.007812 135.761719 110.910156 151.230469 115.746094 C 166.699219 120.585938 180.824219 127.734375 191.074219 136.253906 C 201.324219 144.773438 207.902344 154.632812 207.902344 165.269531 C 207.902344 179.199219 196.105469 192.347656 177.726562 202.023438 C 159.160156 211.695312 134.011719 217.882812 107.515625 217.882812 L 100.167969 205.695312 C 101.917969 204.335938 103.265625 200.664062 104.238281 193.894531 C 104.816406 190.605469 105.007812 185.777344 105.007812 179.777344 C 105.007812 167.980469 99.789062 153.660156 94.558594 142.0625 C 91.46875 135.285156 87.988281 128.707031 84.308594 122.316406 Z M 104.035156 108.007812 " clip-rule="nonzero"/></clipPath><clipPath id="7b592ca4bf"><path d="M 199.082031 68.472656 L 296 68.472656 L 296 186 L 199.082031 186 Z M 199.082031 68.472656 " clip-rule="nonzero"/></clipPath><clipPath id="6f4fa2bd0b"><path d="M 290.128906 68.984375 C 292.070312 75.101562 293.710938 82.851562 294.898438 93.441406 C 295.488281 98.660156 295.789062 104.777344 295.789062 111.636719 C 295.789062 125.367188 293.257812 141.175781 290.421875 153.703125 C 288.78125 161.011719 287.140625 168.171875 285.199219 175.179688 L 263.582031 185.628906 C 261.34375 179.660156 258.953125 173.839844 256.574219 168.179688 C 254.636719 163.410156 252.246094 158.042969 249.867188 152.960938 C 247.484375 147.882812 245.097656 143.125 242.855469 139.394531 C 240.925781 144.3125 238.828125 153.261719 237.1875 161.472656 L 235.398438 170.121094 C 234.949219 172.210938 234.648438 174.148438 234.207031 176.238281 L 216.3125 182.058594 L 199.59375 112.6875 L 219.582031 100.011719 L 231.660156 141.472656 L 236.289062 110 L 251.496094 101.648438 L 268.351562 143.113281 C 269.542969 137.894531 270.292969 132.074219 270.894531 124.316406 C 271.183594 120.585938 271.332031 116.265625 271.332031 111.488281 C 271.332031 101.941406 270.433594 94.929688 269.394531 89.710938 C 268.792969 86.871094 268.191406 84.34375 267.453125 82.101562 Z M 290.128906 68.984375 " clip-rule="nonzero"/></clipPath><clipPath id="69d90a1c25"><path d="M 298 107 L 330.394531 107 L 330.394531 183.914062 L 298 183.914062 Z M 298 107 " clip-rule="nonzero"/></clipPath><clipPath id="48ee3ada2b"><path d="M 330.265625 112.019531 C 328.925781 116.046875 327.125 123.054688 325.34375 131.40625 C 323.554688 139.902344 321.914062 149.601562 320.714844 159 C 319.515625 168.398438 318.625 177.347656 318.625 183.90625 L 298.640625 181.078125 C 299.980469 150.953125 303.558594 126.335938 309.675781 107.25 Z M 330.265625 112.019531 " clip-rule="nonzero"/></clipPath><clipPath id="d5625637da"><path d="M 325 99 L 416.976562 99 L 416.976562 194 L 325 194 Z M 325 99 " clip-rule="nonzero"/></clipPath><clipPath id="fc361c3384"><path d="M 416.542969 102.28125 C 415.660156 104.527344 414.691406 107.679688 413.683594 111.589844 C 411.632812 119.558594 409.460938 129.816406 407.242188 141.453125 C 405.023438 153.09375 402.992188 165.230469 401.203125 176.980469 L 398.773438 193.65625 L 377.4375 193.117188 C 374.46875 181.226562 369.027344 168.710938 364.480469 159.351562 C 361.71875 153.851562 358.929688 148.503906 356.0625 143.433594 C 356.160156 143.613281 356.011719 144.8125 355.78125 146.914062 C 355.28125 151.261719 354.222656 157.792969 352.792969 165.152344 C 352 168.808594 351.261719 172.328125 350.441406 175.519531 L 325.046875 173.9375 C 325.273438 173.070312 325.535156 172.050781 325.933594 171.078125 C 326.15625 170.210938 326.425781 169.191406 326.90625 167.929688 L 327.875 164.160156 C 329.804688 156.621094 332.3125 146.292969 333.902344 135.273438 C 335.363281 124.214844 335.945312 112.316406 334.382812 100.949219 L 352.570312 99.289062 C 357.421875 106.867188 363.460938 117.078125 369.339844 127.855469 C 375.1875 138.785156 380.726562 150.863281 385.117188 162.039062 C 384.4375 154.453125 385.078125 145.34375 386.226562 136.675781 C 387.226562 127.964844 388.875 119.746094 390.15625 113.578125 L 391.585938 106.21875 C 391.925781 104.300781 392.15625 103.429688 392.15625 103.429688 Z M 416.542969 102.28125 " clip-rule="nonzero"/></clipPath><clipPath id="2d00fdd028"><path d="M 408.320312 118 L 501.394531 118 L 501.394531 216.382812 L 408.320312 216.382812 Z M 408.320312 118 " clip-rule="nonzero"/></clipPath><clipPath id="b303006cdc"><path d="M 499.839844 215.964844 L 474.601562 216.324219 C 469.363281 211.054688 464.253906 205.835938 459.296875 200.65625 L 452.695312 193.707031 C 448.027344 189.097656 443.597656 184.238281 439.546875 179.667969 C 437.429688 177.429688 435.597656 175.277344 433.859375 173.320312 C 433.128906 181.097656 432.769531 188.207031 432.757812 193.695312 L 432.949219 202.546875 C 428.488281 201.765625 424.449219 201.113281 421.03125 200.503906 C 418.042969 200.035156 415.332031 199.644531 412.824219 199.164062 C 410.261719 198.824219 408.882812 198.707031 408.703125 198.804688 C 407.882812 185.988281 409.492188 170.949219 412.34375 156.460938 C 413.78125 148.914062 415.652344 141.492188 417.773438 134.785156 C 419.761719 128.496094 421.992188 122.925781 424.332031 118.015625 L 444.898438 127.964844 C 441.9375 134.875 439.839844 140.492188 437.910156 146.644531 C 436.460938 151.210938 435.300781 155.871094 434.679688 161.320312 C 441.957031 160.640625 451.417969 156.5625 459.496094 152.363281 C 464.195312 149.914062 468.792969 147.292969 473.332031 144.324219 L 487.453125 147.84375 C 489.210938 148.242188 490.972656 148.644531 492.582031 148.992188 L 500.191406 150.761719 C 500.757812 150.941406 501.050781 151.03125 501.191406 151.082031 C 492.351562 155.203125 482.011719 160.101562 473.792969 164.261719 L 459.554688 171.070312 C 463.816406 176.96875 469.652344 183.835938 475.433594 190.375 C 481.210938 196.914062 486.953125 203.125 491.621094 207.734375 C 493.839844 210.164062 495.761719 212.023438 497.351562 213.464844 C 498.75 215.003906 499.609375 215.742188 499.859375 215.984375 " clip-rule="nonzero"/></clipPath><clipPath id="f0c430090d"><path d="M 312 43 L 372.964844 43 L 372.964844 107.433594 L 312 107.433594 Z M 312 43 " clip-rule="nonzero"/></clipPath><clipPath id="f0a29f95ee"><path d="M 313.335938 107.160156 C 313.335938 107.160156 317.226562 90.300781 340.574219 79.921875 C 363.917969 69.542969 361.328125 63.925781 361.328125 63.925781 C 361.328125 63.925781 355.800781 71.285156 331.503906 81.652344 C 331.503906 81.652344 321.125 85.980469 312.046875 100.25 C 312.046875 100.25 310.328125 77.761719 334.535156 63.933594 C 334.535156 63.933594 341.441406 60.046875 351.820312 56.144531 C 362.199219 52.246094 367.390625 47.488281 369.546875 43.167969 C 369.546875 43.167969 381.65625 67.8125 360.039062 84.671875 C 360.039062 84.671875 350.519531 89.859375 338.421875 93.75 C 326.324219 97.640625 313.335938 107.160156 313.335938 107.160156 " clip-rule="nonzero"/></clipPath><clipPath id="fb11aef2e1"><path d="M 499.230469 134.128906 L 509 134.128906 L 509 144 L 499.230469 144 Z M 499.230469 134.128906 " clip-rule="nonzero"/></clipPath><clipPath id="1bdc97df60"><path d="M 502.949219 138.824219 L 503.371094 138.824219 L 504.339844 138.804688 L 504.738281 138.632812 L 504.949219 138.273438 L 504.910156 137.855469 L 504.628906 137.554688 L 503.960938 137.433594 L 502.949219 137.433594 Z M 501.910156 141.734375 L 501.910156 136.613281 L 502.949219 136.613281 C 503.917969 136.613281 504.46875 136.613281 504.589844 136.625 L 505.199219 136.722656 L 505.738281 137.105469 L 506.058594 137.792969 L 505.9375 138.746094 C 505.460938 139.265625 505.117188 139.433594 504.679688 139.492188 L 504.960938 139.613281 L 505.238281 139.882812 L 505.550781 140.335938 L 506.367188 141.734375 L 505.089844 141.734375 L 504.660156 140.902344 C 504.371094 140.34375 504.128906 139.992188 503.9375 139.84375 L 503.507812 139.625 L 502.949219 139.625 L 502.949219 141.722656 Z M 504.089844 135.273438 L 502.789062 135.445312 C 501.570312 136.105469 501.089844 136.585938 500.738281 137.203125 L 500.210938 139.152344 C 500.210938 139.835938 500.378906 140.472656 500.71875 141.082031 L 502.148438 142.523438 C 502.757812 142.863281 503.410156 143.042969 504.078125 143.042969 L 505.398438 142.875 C 506.617188 142.183594 507.097656 141.703125 507.4375 141.09375 L 507.957031 139.835938 C 507.957031 138.472656 507.789062 137.824219 507.4375 137.203125 L 506 135.773438 C 505.390625 135.445312 504.75 135.273438 504.089844 135.273438 M 504.078125 134.335938 L 506.457031 134.953125 C 507.21875 135.363281 507.820312 135.964844 508.25 136.734375 L 508.898438 139.164062 C 508.898438 140.003906 508.6875 140.804688 508.257812 141.5625 C 507.828125 142.324219 507.238281 142.921875 506.480469 143.34375 L 504.078125 143.984375 C 503.238281 143.984375 502.441406 143.773438 501.679688 143.34375 C 500.917969 142.914062 500.320312 142.324219 499.898438 141.5625 L 499.261719 139.164062 C 499.261719 138.3125 499.480469 137.515625 499.910156 136.734375 C 500.339844 135.953125 500.941406 135.375 501.699219 134.953125 L 504.078125 134.335938 " clip-rule="nonzero"/></clipPath></defs><g clip-path="url(#3b1015cdef)"><g clip-path="url(#b0813961b4)"><path fill="#1d4723" d="M 79.308594 38.167969 L 513.660156 38.167969 L 513.660156 222.875 L 79.308594 222.875 Z M 79.308594 38.167969 " fill-opacity="1" fill-rule="nonzero"/></g></g><g clip-path="url(#7b592ca4bf)"><g clip-path="url(#6f4fa2bd0b)"><path fill="#1d4723" d="M 79.308594 38.167969 L 513.660156 38.167969 L 513.660156 222.875 L 79.308594 222.875 Z M 79.308594 38.167969 " fill-opacity="1" fill-rule="nonzero"/></g></g><g clip-path="url(#69d90a1c25)"><g clip-path="url(#48ee3ada2b)"><path fill="#1d4723" d="M 79.308594 38.167969 L 513.660156 38.167969 L 513.660156 222.875 L 79.308594 222.875 Z M 79.308594 38.167969 " fill-opacity="1" fill-rule="nonzero"/></g></g><g clip-path="url(#d5625637da)"><g clip-path="url(#fc361c3384)"><path fill="#1d4723" d="M 79.308594 38.167969 L 513.660156 38.167969 L 513.660156 222.875 L 79.308594 222.875 Z M 79.308594 38.167969 " fill-opacity="1" fill-rule="nonzero"/></g></g><g clip-path="url(#2d00fdd028)"><g clip-path="url(#b303006cdc)"><path fill="#1d4723" d="M 79.308594 38.167969 L 513.660156 38.167969 L 513.660156 222.875 L 79.308594 222.875 Z M 79.308594 38.167969 " fill-opacity="1" fill-rule="nonzero"/></g></g><g clip-path="url(#f0c430090d)"><g clip-path="url(#f0a29f95ee)"><path fill="#1d4723" d="M 79.308594 38.167969 L 513.660156 38.167969 L 513.660156 222.875 L 79.308594 222.875 Z M 79.308594 38.167969 " fill-opacity="1" fill-rule="nonzero"/></g></g><g clip-path="url(#fb11aef2e1)"><g clip-path="url(#1bdc97df60)"><path fill="#1d4723" d="M 79.308594 38.167969 L 513.660156 38.167969 L 513.660156 222.875 L 79.308594 222.875 Z M 79.308594 38.167969 " fill-opacity="1" fill-rule="nonzero"/></g></g></svg>