<svg width="1440" height="439" viewBox="0 0 1440 439" fill="none" xmlns="http://www.w3.org/2000/svg">
<path d="M159.492 439C240.077 439 293.801 396.552 293.801 326.737C293.801 263.065 248.472 235.139 169.005 194.366C99.0528 159.738 66.0352 141.865 66.0352 98.3003C66.0352 62.5547 91.2182 37.4211 144.942 37.4211C205.381 37.4211 236.719 75.9593 242.316 125.109H287.645C279.251 50.2672 228.885 1.11707 144.942 1.11707C67.7141 1.11707 17.9079 40.2138 17.9079 100.534C17.9079 159.738 62.6775 189.34 133.19 223.968C215.454 266.416 246.233 284.847 246.233 329.529C246.233 374.211 212.656 401.579 158.932 401.579C91.7778 401.579 54.2832 357.456 47.0081 292.667H0C9.51355 384.823 68.8333 439 159.492 439Z" fill="white"/>
<path d="M310.725 429.505H361.091L381.237 371.419L403.622 308.305H573.187L595.572 371.977C602.287 391.525 609.003 412.191 615.159 429.505H667.763C661.607 411.632 653.772 390.967 646.497 371.977L511.629 6.7023H467.978L456.226 39.0967L333.11 369.743C326.394 388.733 317.44 410.515 310.725 429.505ZM416.493 272.56L488.684 68.6985L560.875 272.56H416.493Z" fill="white"/>
<path d="M892.652 437.883C982.191 437.883 1045.99 395.435 1072.85 325.62L1075.65 429.505H1110.9V213.356L865.79 213.915L866.349 249.102H1063.9C1053.26 338.466 998.42 398.786 897.688 398.786C786.883 398.786 731.481 315.008 731.481 218.383C731.481 115.615 796.397 39.0967 903.844 39.0967C977.154 39.0967 1035.91 71.4911 1054.94 134.604H1103.63C1082.92 50.8257 1006.81 0 904.963 0C771.774 0 682.234 87.1298 682.234 219.5C682.234 339.024 757.783 437.883 892.652 437.883Z" fill="white"/>
<path d="M1197.12 429.505H1440V392.643C1392.99 393.76 1348.78 393.76 1324.72 393.76H1246.37V225.644H1295.06C1327.52 225.644 1361.09 225.644 1408.1 226.202V189.898C1361.09 191.015 1327.52 191.015 1295.06 191.015H1246.37V42.4479H1321.92C1345.98 42.4479 1386.84 42.4479 1436.08 43.0064V6.7023H1197.12V77.6349V358.573V429.505Z" fill="white"/>
</svg>
